<?xml version="1.0" encoding="utf-8"?>
<!-- Generator: Adobe Illustrator 16.0.0, SVG Export Plug-In . SVG Version: 6.00 Build 0)  -->
<!DOCTYPE svg PUBLIC "-//W3C//DTD SVG 1.1//EN" "http://www.w3.org/Graphics/SVG/1.1/DTD/svg11.dtd">
<svg version="1.1" id="Layer_1" xmlns="http://www.w3.org/2000/svg" xmlns:xlink="http://www.w3.org/1999/xlink" x="0px" y="0px"
	 width="25px" height="25px" viewBox="0 0 25 25" enable-background="new 0 0 25 25" xml:space="preserve">
<path fill="#FFFFFF" d="M6.589,13.314h2.74v11.282C9.329,24.819,9.51,25,9.732,25h4.646c0.223,0,0.403-0.181,0.403-0.403V13.368
	h3.15c0.204,0,0.377-0.153,0.4-0.357l0.479-4.153c0.013-0.114-0.022-0.229-0.1-0.314c-0.076-0.085-0.187-0.135-0.301-0.135h-3.629
	V5.805c0-0.785,0.423-1.183,1.257-1.183c0.118,0,2.372,0,2.372,0c0.223,0,0.403-0.181,0.403-0.403V0.406
	c0-0.223-0.181-0.403-0.403-0.403h-3.271C15.118,0.002,15.066,0,14.992,0c-0.568,0-2.54,0.111-4.098,1.544
	c-1.726,1.588-1.486,3.49-1.429,3.819v3.044H6.589c-0.223,0-0.403,0.181-0.403,0.403v4.1C6.186,13.135,6.366,13.314,6.589,13.314z"
	/>
</svg>
