<?xml version="1.0" encoding="utf-8"?>
<!-- Generator: Adobe Illustrator 16.0.0, SVG Export Plug-In . SVG Version: 6.00 Build 0)  -->
<!DOCTYPE svg PUBLIC "-//W3C//DTD SVG 1.1//EN" "http://www.w3.org/Graphics/SVG/1.1/DTD/svg11.dtd">
<svg version="1.1" id="Layer_1" xmlns="http://www.w3.org/2000/svg" xmlns:xlink="http://www.w3.org/1999/xlink" x="0px" y="0px"
	 width="25px" height="25px" viewBox="0 0 25 25" enable-background="new 0 0 25 25" xml:space="preserve">
<g>
	<path fill="#FFFFFF" d="M17.553,0H7.448C3.341,0,0,3.341,0,7.448v10.105C0,21.659,3.341,25,7.448,25h10.105
		C21.659,25,25,21.659,25,17.553V7.448C25,3.341,21.659,0,17.553,0z M22.484,17.553c0,2.724-2.208,4.932-4.932,4.932H7.448
		c-2.724,0-4.933-2.208-4.933-4.932V7.448c0-2.724,2.208-4.933,4.933-4.933h10.105c2.724,0,4.932,2.208,4.932,4.933V17.553
		L22.484,17.553z"/>
	<path fill="#FFFFFF" d="M12.5,6.034c-3.565,0-6.466,2.9-6.466,6.466s2.9,6.466,6.466,6.466s6.466-2.9,6.466-6.466
		S16.065,6.034,12.5,6.034z M12.5,16.451c-2.182,0-3.951-1.77-3.951-3.951c0-2.182,1.769-3.951,3.951-3.951
		c2.182,0,3.951,1.769,3.951,3.951C16.451,14.682,14.682,16.451,12.5,16.451z"/>
	<circle fill="#FFFFFF" cx="18.979" cy="6.083" r="1.549"/>
</g>
</svg>
