<?xml version="1.0" encoding="utf-8"?>
<!-- Generator: Adobe Illustrator 16.0.0, SVG Export Plug-In . SVG Version: 6.00 Build 0)  -->
<!DOCTYPE svg PUBLIC "-//W3C//DTD SVG 1.1//EN" "http://www.w3.org/Graphics/SVG/1.1/DTD/svg11.dtd">
<svg version="1.1" id="Layer_1" xmlns="http://www.w3.org/2000/svg" xmlns:xlink="http://www.w3.org/1999/xlink" x="0px" y="0px"
	 width="512px" height="512px" viewBox="0 0 512 512" enable-background="new 0 0 512 512" xml:space="preserve">
<g>
	<path fill="#FFFFFF" d="M112.402,160.664H16c-8.281,0-15,6.719-15,15V497c0,8.285,6.719,15,15,15h96.402c8.281,0,15-6.715,15-15
		V175.664C127.402,167.383,120.684,160.664,112.402,160.664z"/>
	<path fill="#FFFFFF" d="M64.203,0C29.352,0,1,28.352,1,63.195c0,34.852,28.352,63.199,63.203,63.199
		c34.848,0,63.195-28.352,63.195-63.199C127.402,28.352,99.051,0,64.203,0z"/>
	<path fill="#FFFFFF" d="M353.41,158.543c-22.801,0-45.273,5.496-65.398,15.777c-0.684-7.652-7.109-13.656-14.941-13.656h-96.406
		c-8.281,0-15,6.719-15,15V497c0,8.285,6.719,15,15,15h96.406c8.285,0,15-6.715,15-15V320.266c0-22.734,18.5-41.23,41.234-41.23
		s41.227,18.496,41.227,41.23V497c0,8.285,6.719,15,15,15h96.402c8.285,0,15-6.715,15-15V302.066
		C496.934,222.926,432.551,158.543,353.41,158.543z"/>
</g>
<path fill="#FFFFFF" d="M353.41,158.543c-22.801,0-45.273,5.496-65.398,15.777c-0.684-7.652-7.109-13.656-14.941-13.656h-48.211V512
	h48.211c8.285,0,15-6.715,15-15V320.266c0-22.734,18.5-41.23,41.234-41.23s41.227,18.496,41.227,41.23V497c0,8.285,6.719,15,15,15
	h96.402c8.285,0,15-6.715,15-15V302.066C496.934,222.926,432.551,158.543,353.41,158.543z"/>
</svg>
