<?xml version="1.0" encoding="utf-8"?>
<!-- Generator: Adobe Illustrator 16.0.0, SVG Export Plug-In . SVG Version: 6.00 Build 0)  -->
<!DOCTYPE svg PUBLIC "-//W3C//DTD SVG 1.1//EN" "http://www.w3.org/Graphics/SVG/1.1/DTD/svg11.dtd">
<svg version="1.1" id="Layer_1" xmlns="http://www.w3.org/2000/svg" xmlns:xlink="http://www.w3.org/1999/xlink" x="0px" y="0px"
	 width="25px" height="25px" viewBox="0 0 25 25" enable-background="new 0 0 25 25" xml:space="preserve">
<path fill="#FFFFFF" d="M24.994,12.866c0.205-7.133-5.569-12.968-12.68-12.865C5.47,0.101-0.052,5.753,0,12.598
	c0.038,4.904,2.9,9.137,7.04,11.149c0.239,0.116,0.517-0.064,0.507-0.331c-0.03-0.804-0.004-1.664,0.157-2.354
	c0.158-0.681,0.78-3.313,1.188-5.041c0.199-0.842,0.223-1.716,0.063-2.565c-0.052-0.279-0.09-0.607-0.09-0.971
	c0-1.848,1.071-3.227,2.404-3.227c1.134,0,1.681,0.851,1.681,1.872c0,1.14-0.726,2.844-1.1,4.424
	c-0.313,1.322,0.663,2.401,1.967,2.401c2.362,0,4.178-2.49,4.178-6.084c0-3.182-2.286-5.406-5.55-5.406c-3.781,0-6,2.835-6,5.766
	c0,1.142,0.44,2.367,0.989,3.032c0.108,0.132,0.125,0.248,0.092,0.381c-0.101,0.42-0.325,1.322-0.369,1.508
	c-0.058,0.243-0.192,0.295-0.444,0.178c-1.66-0.773-2.697-3.199-2.697-5.147c0-4.191,3.045-8.041,8.779-8.041
	c4.609,0,8.191,3.284,8.191,7.674c0,4.579-2.888,8.264-6.896,8.264c-1.059,0-2.067-0.433-2.661-1.02
	c-0.182-0.18-0.491-0.098-0.556,0.15c-0.209,0.796-0.547,2.084-0.656,2.502c-0.196,0.754-0.609,1.631-1.022,2.395
	c-0.11,0.203,0.001,0.455,0.225,0.512c1.021,0.259,2.093,0.393,3.198,0.383C19.178,24.938,24.807,19.424,24.994,12.866z"/>
</svg>
