<?xml version="1.0" encoding="utf-8"?>
<!-- Generator: Adobe Illustrator 16.0.0, SVG Export Plug-In . SVG Version: 6.00 Build 0)  -->
<!DOCTYPE svg PUBLIC "-//W3C//DTD SVG 1.1//EN" "http://www.w3.org/Graphics/SVG/1.1/DTD/svg11.dtd">
<svg version="1.1" id="Layer_1" xmlns="http://www.w3.org/2000/svg" xmlns:xlink="http://www.w3.org/1999/xlink" x="0px" y="0px"
	 width="25px" height="25px" viewBox="0 0 25 25" enable-background="new 0 0 25 25" xml:space="preserve">
<path fill="#FFFFFF" d="M24.603,4.521c-0.556,0.246-1.132,0.44-1.724,0.581c0.652-0.619,1.143-1.394,1.418-2.259l0,0
	c0.08-0.247-0.189-0.46-0.412-0.328l0,0c-0.822,0.488-1.709,0.854-2.635,1.089c-0.054,0.014-0.109,0.021-0.165,0.021
	c-0.169,0-0.333-0.063-0.462-0.176c-0.984-0.868-2.25-1.346-3.565-1.346c-0.569,0-1.144,0.088-1.708,0.263
	c-1.747,0.542-3.096,1.984-3.519,3.762c-0.159,0.667-0.202,1.335-0.128,1.985c0.008,0.075-0.027,0.127-0.049,0.151
	c-0.038,0.042-0.092,0.067-0.148,0.067c-0.006,0-0.013,0-0.019-0.001C7.661,7.975,4.211,6.132,1.773,3.141l0,0
	C1.649,2.988,1.41,3.007,1.311,3.177l0,0c-0.478,0.819-0.73,1.756-0.73,2.709c0,1.461,0.587,2.838,1.607,3.842
	C1.759,9.627,1.344,9.467,0.958,9.253l0,0C0.772,9.149,0.542,9.282,0.54,9.496l0,0c-0.027,2.171,1.244,4.102,3.148,4.972
	c-0.039,0.001-0.077,0.001-0.115,0.001c-0.302,0-0.607-0.029-0.908-0.086l0,0c-0.21-0.041-0.387,0.158-0.321,0.362l0,0
	c0.618,1.929,2.279,3.351,4.267,3.674c-1.65,1.107-3.571,1.692-5.57,1.692L0.417,20.11c-0.192,0-0.354,0.125-0.403,0.312
	c-0.048,0.184,0.041,0.376,0.204,0.472c2.253,1.312,4.823,2.004,7.434,2.004c2.285,0,4.422-0.453,6.353-1.347
	c1.77-0.82,3.333-1.992,4.647-3.483c1.225-1.39,2.183-2.993,2.846-4.767c0.634-1.691,0.968-3.495,0.968-5.217V8.002
	c0-0.277,0.125-0.537,0.344-0.714c0.827-0.672,1.549-1.464,2.143-2.353l0,0C25.107,4.701,24.86,4.407,24.603,4.521L24.603,4.521z"/>
</svg>
